<?xml version="1.0" encoding="UTF-8"?>
<svg version="1.1" xmlns="http://www.w3.org/2000/svg" width="600" height="600">
<path d="M0 0 C0.89910504 0.00223072 1.79821009 0.00446144 2.72456074 0.00675976 C3.67209374 0.00519977 4.61962675 0.00363978 5.59587288 0.00203252 C8.7965805 -0.00198186 11.99724137 0.00121385 15.19794941 0.00434887 C17.4821599 0.00299503 19.76637017 0.00121519 22.05058002 -0.00096118 C28.2735354 -0.00553749 34.49647429 -0.00374515 40.71942997 -0.0005821 C47.21593236 0.00194049 53.71243329 -0.00039575 60.20893574 -0.00196826 C71.82096141 -0.00390714 83.43297953 -0.00078929 95.04500401 0.00429107 C105.58394528 0.00875912 116.12287553 0.00798319 126.6618166 0.00337231 C138.8859981 -0.00197333 151.11017175 -0.00397435 163.3343544 -0.00101542 C169.81050538 0.00054782 176.28664876 0.00073983 182.76279926 -0.00255191 C188.84969689 -0.0054294 194.93657361 -0.00345719 201.02346897 0.00234234 C203.26450408 0.0036706 205.50554093 0.00327472 207.74657536 0.00107968 C210.79183295 -0.00162926 213.8370224 0.00174615 216.88227558 0.00675976 C218.23093315 0.00341368 218.23093315 0.00341368 219.60683632 0 C225.68926835 0.01959359 225.68926835 0.01959359 226.80341816 1.13374341 C226.89196163 3.7997588 226.91873716 6.4404374 226.90107441 9.10639966 C226.90006733 9.81308789 226.89906025 10.51977612 226.89802265 11.24787915 C226.89277561 13.89735032 226.87881445 16.54679843 226.86591816 19.19624341 C226.84529316 25.11561841 226.82466816 31.03499341 226.80341816 37.13374341 C246.60341816 37.13374341 266.40341816 37.13374341 286.80341816 37.13374341 C285.67805848 47.2619805 285.67805848 47.2619805 285.06318378 50.62788403 C284.92634174 51.38476513 284.7894997 52.14164624 284.64851093 52.92146313 C284.43128376 54.09388562 284.43128376 54.09388562 284.20966816 55.28999341 C284.05808247 56.11833691 283.90649677 56.94668042 283.75031757 57.80012524 C283.43252597 59.53141466 283.1131329 61.26241083 282.79218769 62.99311841 C282.29973709 65.65363075 281.81498768 68.31547324 281.33076191 70.97749341 C281.02002365 72.66507811 280.70884204 74.35258125 280.39716816 76.03999341 C280.17994099 77.23670666 280.17994099 77.23670666 279.95832539 78.45759594 C278.91818905 84.01897251 278.91818905 84.01897251 277.80341816 85.13374341 C272.85341816 85.13374341 267.90341816 85.13374341 262.80341816 85.13374341 C262.80341816 144.86374341 262.80341816 204.59374341 262.80341816 266.13374341 C264.78341816 266.46374341 266.76341816 266.79374341 268.80341816 267.13374341 C272.2240955 269.12734571 274.53058412 271.31524127 275.80341816 275.13374341 C275.87370937 277.70640159 275.89712648 280.25015772 275.86591816 282.82124341 C275.86140644 283.52313794 275.85689472 284.22503247 275.85224628 284.94819653 C275.84048743 286.67674879 275.82255269 288.40525706 275.80341816 290.13374341 C276.88751972 290.24589184 277.97162128 290.35804028 279.08857441 290.47358716 C283.46301425 291.25095869 284.98346851 292.03828612 287.60224628 295.49116528 C289.25040088 299.11710539 289.07884359 302.51377793 288.96357441 306.41108716 C288.94623249 307.52574353 288.94623249 307.52574353 288.92854023 308.66291821 C288.8984971 310.48675606 288.85254157 312.31031971 288.80341816 314.13374341 C273.17463455 314.15707279 257.54585563 314.17472277 241.91705894 314.18555558 C234.66082967 314.19071845 227.4046112 314.19776098 220.14838886 314.20918286 C213.8260796 314.21912996 207.50377815 314.2255969 201.18146127 314.2278319 C197.83185066 314.22913896 194.48226242 314.23222453 191.13265896 314.23947346 C187.39928171 314.24667961 183.66595158 314.24773453 179.93256855 314.2472688 C178.8140752 314.25086407 177.69558186 314.25445935 176.54319477 314.25816357 C175.53212162 314.25678891 174.52104847 314.25541424 173.47933674 314.25399792 C172.15333753 314.25538061 172.15333753 314.25538061 170.80055046 314.25679123 C168.80341816 314.13374341 168.80341816 314.13374341 167.80341816 313.13374341 C167.23881782 306.24996237 167.0834349 300.08571663 170.80341816 294.13374341 C174.49709633 291.06877641 175.95300724 290.13374341 180.80341816 290.13374341 C180.76861347 289.26491528 180.73380878 288.39608716 180.69794941 287.50093091 C180.51677325 279.78800304 180.76004172 275.01667197 185.61591816 268.82124341 C188.31907252 266.7359529 190.46581962 266.59363079 193.80341816 266.13374341 C193.74196893 253.46739594 193.66469293 240.80125047 193.56770325 228.13512242 C193.52314452 222.25251546 193.48385698 216.36997546 193.45698261 210.48725903 C193.43080437 204.8007133 193.39030091 199.11442725 193.3402319 193.42804348 C193.32366083 191.26818226 193.31208623 189.10827622 193.30580425 186.94836056 C193.22069902 160.35516819 187.87636513 138.39465294 169.13154316 118.43843091 C153.11940371 102.5874875 131.95060233 94.0152197 109.37763691 94.09858716 C86.66798653 94.65859783 66.42795222 103.33621007 49.74091816 118.69624341 C30.47322637 138.95303642 26.37007238 163.21043065 26.29169941 190.15718091 C26.27482341 192.35678604 26.25666933 194.5563817 26.23730183 196.75596631 C26.19011276 202.49984284 26.16010318 208.24368095 26.1338625 213.98768628 C26.10389889 219.8671783 26.05742343 225.74653832 26.01240253 231.62593091 C25.92672379 243.12846557 25.85922217 254.63102767 25.80341816 266.13374341 C26.75498798 266.26732251 27.70655781 266.40090161 28.68696308 266.53852856 C32.15380025 267.20066323 32.99290934 267.79632782 35.11591816 270.50874341 C35.60705097 271.11460278 36.09818378 271.72046216 36.60419941 272.34468091 C39.10979684 276.08267316 38.90912788 279.45706146 38.86591816 283.82124341 C38.85689472 285.00073559 38.84787128 286.18022778 38.83857441 287.39546216 C38.82697285 288.29909497 38.81537128 289.20272778 38.80341816 290.13374341 C39.73669941 290.25233716 40.66998066 290.37093091 41.63154316 290.49311841 C45.76240638 291.32743068 47.16422046 292.90805733 49.80341816 296.13374341 C51.71144002 299.98940004 52.04889631 303.10390155 51.99091816 307.38374341 C51.98447285 308.44077466 51.97802753 309.49780591 51.97138691 310.58686841 C51.80341816 313.13374341 51.80341816 313.13374341 50.80341816 314.13374341 C49.2472142 314.22962464 47.68665362 314.25562373 46.12749958 314.25399792 C45.11642643 314.25537259 44.10535328 314.25674725 43.06364155 314.25816357 C41.38590153 314.25277066 41.38590153 314.25277066 39.67426777 314.2472688 C38.50369328 314.24741482 37.33311878 314.24756085 36.12707233 314.2477113 C32.90820873 314.24713236 29.68938812 314.24210332 26.47053313 314.23513734 C23.10994416 314.22890297 19.74935443 314.22829994 16.38876057 314.22711194 C10.02099474 314.22399887 3.653246 314.21578581 -2.71451229 314.20576245 C-9.96227913 314.19460055 -17.21004677 314.18909067 -24.45782006 314.18406701 C-39.37075019 314.17360317 -54.28366431 314.1560042 -69.19658184 314.13374341 C-69.26594438 311.55905857 -69.31667339 308.98625596 -69.35673809 306.41108716 C-69.37820904 305.68514355 -69.39967999 304.95919995 -69.42180157 304.21125805 C-69.48254025 299.00699009 -68.79733886 295.94157521 -65.19267559 292.20014966 C-62.30033554 290.65492689 -59.42737714 290.46796361 -56.19658184 290.13374341 C-56.23138653 289.10893872 -56.26619122 288.08413403 -56.30205059 287.02827466 C-56.33020219 285.66761405 -56.35750088 284.3069356 -56.38408184 282.94624341 C-56.42178692 281.93594067 -56.42178692 281.93594067 -56.46025372 280.90522778 C-56.52596673 276.41483867 -55.90523807 273.72106129 -53.19658184 270.13374341 C-49.77849126 266.83351802 -48.37697529 266.99714231 -43.19658184 266.13374341 C-43.19658184 206.40374341 -43.19658184 146.67374341 -43.19658184 85.13374341 C-48.14658184 85.13374341 -53.09658184 85.13374341 -58.19658184 85.13374341 C-60.44705075 78.38233667 -60.44705075 78.38233667 -61.06621075 75.02778637 C-61.20620495 74.28036175 -61.34619915 73.53293713 -61.4904356 72.76286328 C-61.63322948 71.9751756 -61.77602337 71.18748791 -61.92314434 70.37593091 C-62.07568676 69.55045758 -62.22822918 68.72498425 -62.3853941 67.87449658 C-62.70509218 66.13854401 -63.02265173 64.40219639 -63.3381834 62.66548169 C-63.82149139 60.00924051 -64.31323593 57.35465904 -64.80595684 54.70014966 C-65.11635633 53.00883576 -65.42626899 51.31743243 -65.73564434 49.62593091 C-65.88248669 48.83419476 -66.02932903 48.04245862 -66.18062115 47.22673047 C-66.80163177 43.78410955 -67.19658184 40.64490272 -67.19658184 37.13374341 C-47.39658184 37.13374341 -27.59658184 37.13374341 -7.19658184 37.13374341 C-7.23618401 25.33110838 -7.23618401 25.33110838 -7.28666973 13.5285188 C-7.28958893 12.05447981 -7.29213748 10.58044003 -7.29423809 9.10639966 C-7.29935406 8.33421093 -7.30447002 7.56202221 -7.30974102 6.76643384 C-7.31005158 4.88849153 -7.25891753 3.01065087 -7.19658184 1.13374341 C-5.30140269 -0.76143575 -2.52213503 0.00812466 0 0 Z " fill="#FFFFFF" transform="translate(190.19658184051514,143.8662565946579)"/>
</svg>
