<?xml version="1.0" encoding="UTF-8"?>
<svg version="1.1" xmlns="http://www.w3.org/2000/svg" width="600" height="600">
<path d="M0 0 C198 0 396 0 600 0 C600 198 600 396 600 600 C402 600 204 600 0 600 C0 402 0 204 0 0 Z M183 145 C182.91145653 147.6660154 182.884681 150.30669399 182.90234375 152.97265625 C182.90335083 153.67934448 182.90435791 154.38603271 182.90539551 155.11413574 C182.91064255 157.76360691 182.92460371 160.41305502 182.9375 163.0625 C182.958125 168.981875 182.97875 174.90125 183 181 C163.2 181 143.4 181 123 181 C123.71415035 187.79153795 123.71415035 187.79153795 124.74023438 194.49414062 C124.87707642 195.25102173 125.01391846 196.00790283 125.15490723 196.78771973 C125.29972534 197.56933472 125.44454346 198.35094971 125.59375 199.15625 C125.74533569 199.98459351 125.89692139 200.81293701 126.05310059 201.66638184 C126.37089219 203.39767125 126.69028526 205.12866742 127.01123047 206.859375 C127.50368107 209.51988734 127.98843048 212.18172984 128.47265625 214.84375 C128.78339451 216.5313347 129.09457612 218.21883784 129.40625 219.90625 C129.55106812 220.70405884 129.69588623 221.50186768 129.84509277 222.32385254 C130.25516659 225.96595278 130.25516659 225.96595278 132 229 C136.95 229 141.9 229 147 229 C147 288.73 147 348.46 147 410 C145.02 410.33 143.04 410.66 141 411 C137.57932266 412.99360231 135.27283404 415.18149787 134 419 C133.92970879 421.57265818 133.90629168 424.11641431 133.9375 426.6875 C133.94201172 427.38939453 133.94652344 428.09128906 133.95117188 428.81445312 C133.96293073 430.54300538 133.98086546 432.27151365 134 434 C132.91589844 434.11214844 131.83179688 434.22429687 130.71484375 434.33984375 C126.34040391 435.11721529 124.81994965 435.90454271 122.20117188 439.35742188 C120.55301728 442.98336199 120.72457457 446.38003453 120.83984375 450.27734375 C120.85140503 451.020448 120.86296631 451.76355225 120.87487793 452.5291748 C120.90492106 454.35301266 120.95087659 456.1765763 121 458 C136.62878361 458.02332938 152.25756253 458.04097937 167.88635921 458.05181217 C175.14258849 458.05697505 182.39880696 458.06401758 189.6550293 458.07543945 C195.97733856 458.08538656 202.29964001 458.09185349 208.62195688 458.09408849 C211.9715675 458.09539556 215.32115574 458.09848113 218.6707592 458.10573006 C222.40413645 458.1129362 226.13746658 458.11399112 229.87084961 458.11352539 C231.54858963 458.1189183 231.54858963 458.1189183 233.26022339 458.12442017 C234.27129654 458.1230455 235.28236969 458.12167084 236.32408142 458.12025452 C237.20808089 458.12117631 238.09208036 458.1220981 239.0028677 458.12304783 C240.99944555 458.22131594 240.99944555 458.22131594 242 457 C242.56460034 450.11621897 242.71998326 443.95197322 239 438 C235.30632183 434.935033 233.85041092 434 229 434 C229.03480469 433.13117188 229.06960937 432.26234375 229.10546875 431.3671875 C229.28664491 423.65425963 229.04337644 418.88292856 224.1875 412.6875 C221.48434564 410.60220949 219.33759854 410.45988738 216 410 C216.06144923 397.33365253 216.13872523 384.66750706 216.23571491 372.00137901 C216.28027364 366.11877206 216.31956118 360.23623206 216.34643555 354.35351562 C216.37261379 348.6669699 216.41311725 342.98068384 216.46318626 337.29430008 C216.47975733 335.13443885 216.49133192 332.97453282 216.49761391 330.81461716 C216.58271914 304.22142479 221.92705303 282.26090953 240.671875 262.3046875 C256.68401444 246.45374409 277.85281583 237.88147629 300.42578125 237.96484375 C323.13543163 238.52485443 343.37546594 247.20246666 360.0625 262.5625 C379.33019179 282.81929301 383.43334578 307.07668724 383.51171875 334.0234375 C383.52859474 336.22304263 383.54674883 338.42263829 383.56611633 340.6222229 C383.6133054 346.36609943 383.64331498 352.10993755 383.66955566 357.85394287 C383.69951927 363.73343489 383.74599473 369.61279491 383.79101562 375.4921875 C383.87669437 386.99472217 383.94419599 398.49728427 384 410 C383.04843018 410.1335791 382.09686035 410.2671582 381.11645508 410.40478516 C377.64961791 411.06691982 376.81050882 411.66258442 374.6875 414.375 C374.19636719 414.98085938 373.70523438 415.58671875 373.19921875 416.2109375 C370.69362132 419.94892975 370.89429028 423.32331806 370.9375 427.6875 C370.94652344 428.86699219 370.95554687 430.04648437 370.96484375 431.26171875 C370.97644531 432.16535156 370.98804688 433.06898438 371 434 C370.06671875 434.11859375 369.1334375 434.2371875 368.171875 434.359375 C364.04101178 435.19368728 362.6391977 436.77431392 360 440 C358.09197814 443.85565663 357.75452185 446.97015814 357.8125 451.25 C357.82216797 452.83554687 357.82216797 452.83554687 357.83203125 454.453125 C357.71470694 456.93438718 357.71470694 456.93438718 359 458 C360.55620396 458.09588124 362.11676454 458.12188033 363.67591858 458.12025452 C364.68699173 458.12162918 365.69806488 458.12300385 366.73977661 458.12442017 C367.85826996 458.12082489 368.97676331 458.11722961 370.12915039 458.11352539 C371.88501213 458.11374443 371.88501213 458.11374443 373.67634583 458.1139679 C376.89520943 458.11338895 380.11403004 458.10835991 383.33288503 458.10139394 C386.693474 458.09515957 390.05406373 458.09455654 393.41465759 458.09336853 C399.78242342 458.09025546 406.15017216 458.0820424 412.51793045 458.07201904 C419.76569729 458.06085715 427.01346493 458.05534726 434.26123822 458.05032361 C449.17416835 458.03985977 464.08708247 458.0222608 479 458 C479.06936254 455.42531517 479.12009155 452.85251256 479.16015625 450.27734375 C479.1816272 449.55140015 479.20309814 448.82545654 479.22521973 448.07751465 C479.28595841 442.87324669 478.60075702 439.80783181 474.99609375 436.06640625 C472.1037537 434.52118348 469.2307953 434.3342202 466 434 C466.05220703 432.46279297 466.05220703 432.46279297 466.10546875 430.89453125 C466.13362035 429.53387064 466.16091904 428.1731922 466.1875 426.8125 C466.21263672 426.13896484 466.23777344 425.46542969 466.26367188 424.77148438 C466.32938489 420.28109527 465.70865623 417.58731789 463 414 C459.58190942 410.69977461 458.18039345 410.86339891 453 410 C453 350.27 453 290.54 453 229 C457.95 229 462.9 229 468 229 C469.69775842 223.957111 469.69775842 223.957111 470.86962891 218.89404297 C471.00962311 218.14661835 471.14961731 217.39919373 471.29385376 216.62911987 C471.50804459 215.44758835 471.50804459 215.44758835 471.7265625 214.2421875 C471.95537613 213.00397751 471.95537613 213.00397751 472.18881226 211.74075317 C472.50851034 210.00480061 472.82606989 208.26845298 473.14160156 206.53173828 C473.62490955 203.87549711 474.11665409 201.22091564 474.609375 198.56640625 C474.91977449 196.87509236 475.22968715 195.18368903 475.5390625 193.4921875 C475.75932602 192.30458328 475.75932602 192.30458328 475.98403931 191.09298706 C476.60504993 187.65036615 477 184.51115931 477 181 C457.2 181 437.4 181 417 181 C417.0625 163.0625 417.0625 163.0625 417.09008789 157.39477539 C417.09300709 155.92073641 417.09555564 154.44669663 417.09765625 152.97265625 C417.10277222 152.20046753 417.10788818 151.42827881 417.11315918 150.63269043 C417.11346974 148.75474813 417.06233569 146.87690747 417 145 C415.10482085 143.10482085 412.32555319 143.87438125 409.80341816 143.86625659 C408.90431312 143.86848732 408.00520807 143.87071804 407.07885742 143.87301636 C406.13132442 143.87145637 405.18379141 143.86989638 404.20754528 143.86828911 C401.00683766 143.86427474 397.80617679 143.86747044 394.60546875 143.87060547 C392.32125826 143.86925162 390.03704799 143.86747178 387.75283813 143.86529541 C381.52988276 143.8607191 375.30694387 143.86251144 369.08398819 143.8656745 C362.5874858 143.86819708 356.09098487 143.86586084 349.59448242 143.86428833 C337.98245675 143.86234946 326.37043863 143.86546731 314.75841415 143.87054767 C304.21947288 143.87501571 293.68054263 143.87423978 283.14160156 143.86962891 C270.91742006 143.86428327 258.6932464 143.86228224 246.46906376 143.86524117 C239.99291278 143.86680441 233.5167694 143.86699643 227.0406189 143.86370468 C220.95372127 143.86082719 214.86684455 143.8627994 208.77994919 143.86859894 C206.53891408 143.8699272 204.29787723 143.86953132 202.0568428 143.86733627 C199.01158521 143.86462733 195.96639576 143.86800274 192.92114258 143.87301636 C192.02203753 143.87078564 191.12293249 143.86855491 190.19658184 143.86625659 C186.28481298 143.48960105 186.28481298 143.48960105 183 145 Z " fill="#F5F5F5" transform="translate(0,0)"/>
</svg>
