<?xml version="1.0" encoding="UTF-8"?>
<svg version="1.1" xmlns="http://www.w3.org/2000/svg" width="1000" height="1000">
<path d="M0 0 C330 0 660 0 1000 0 C1000 330 1000 660 1000 1000 C670 1000 340 1000 0 1000 C0 670 0 340 0 0 Z M461 67 C460.154375 67.26683594 459.30875 67.53367187 458.4375 67.80859375 C451.4012127 70.2822885 445.82437932 74.41922856 440 79 C439.06800781 79.70125 438.13601563 80.4025 437.17578125 81.125 C436.45777344 81.74375 435.73976563 82.3625 435 83 C435 83.66 435 84.32 435 85 C434.34 85 433.68 85 433 85 C421.50329514 98.39306854 415.43249504 115.41154984 416 133 C417.50857951 152.5619982 426.25829657 169.11703309 441 182 C455.63810554 193.1849026 473.26885624 197.67928388 491.4609375 195.60546875 C509.36240353 192.69694964 524.86782956 183.31615987 536 169 C547.17618124 153.21100811 550.11595102 135.31148811 547.50390625 116.41015625 C543.44035386 98.93917675 533.17084111 84.04550127 518.625 73.625 C507.78542795 66.9036883 495.35787381 63.59892331 482.6875 63.6875 C481.44528687 63.69378418 481.44528687 63.69378418 480.17797852 63.70019531 C473.44915478 63.82343144 467.38351619 64.80566631 461 67 Z M638 241 C637.01386719 241.32871094 636.02773438 241.65742188 635.01171875 241.99609375 C614.54478475 249.66787576 599.63137129 265.61313206 590.625 285.1640625 C582.48298599 303.85201094 583.70808231 325.46713383 590.4609375 344.36328125 C594.80600605 354.63043562 601.1518834 363.1518834 609 371 C609.63550781 371.63550781 610.27101563 372.27101563 610.92578125 372.92578125 C626.53537371 387.50119781 646.48272541 392.69388592 667.2734375 392.25 C688.44396498 391.39875241 706.64150975 381.10945732 721 366 C734.95853989 350.20030301 740.93868922 329.90709915 740.13623047 309.03320312 C738.58309022 285.8530024 726.46024884 267.90177452 709.4765625 252.96875 C705.8790605 250.10890614 702.10719452 248.02712363 698 246 C697.41347656 245.65453125 696.82695313 245.3090625 696.22265625 244.953125 C679.66754455 235.53446189 655.72444665 234.96146438 638 241 Z M440 260 C440 260.66 440 261.32 440 262 C439.40703125 262.27070313 438.8140625 262.54140625 438.203125 262.8203125 C426.10366405 269.29910187 419.31077775 284.9116615 415.25390625 297.2734375 C410.29385058 316.77158737 414.98777768 336.11005327 425 353 C435.29791037 368.36577964 450.33991604 378.47328897 468.36547852 382.53271484 C485.68717363 385.60506444 502.81759625 382.57359271 518 374 C518.9384375 373.484375 519.876875 372.96875 520.84375 372.4375 C521.5553125 371.963125 522.266875 371.48875 523 371 C523 370.34 523 369.68 523 369 C523.71542969 368.77699219 524.43085937 368.55398438 525.16796875 368.32421875 C535.80335297 363.35125978 542.48278845 350.28858748 547 340 C553.5606593 321.55243187 552.55221525 301.25574561 544.25 283.5625 C535.04400613 266.71553122 519.98586248 254.00532122 501.5625 248.5625 C478.96981045 242.61424761 459.43813122 248.15309162 440 260 Z M256 274 C254.73765704 276.14448341 254.73765704 276.14448341 254 278 C253.34 278 252.68 278 252 278 C241.94445179 293.62026907 237.3637716 309.50652594 241.25390625 328.15234375 C245.39947392 343.97495544 253.85423965 356.76333241 267.6953125 365.75 C284.26062968 375.18892717 300.30249354 377.13573314 318.68359375 372.29296875 C333.45735591 367.5970995 346.27741746 356.62589309 353.4375 342.9375 C360.4909053 327.53557261 362.28644274 311.21095048 357 294.91796875 C350.42075015 278.05864101 338.64816615 266.44914404 322.4375 258.6875 C299.47808036 249.26928737 272.69302354 256.03294922 256 274 Z M795 428 C794.01 428.66 793.02 429.32 792 430 C792 430.66 792 431.32 792 432 C791.43796875 432.2371875 790.8759375 432.474375 790.296875 432.71875 C787.48105958 434.28947697 785.52044584 436.21471464 783.25 438.5 C782.45078125 439.2940625 781.6515625 440.088125 780.828125 440.90625 C778.78076391 442.78783462 778.78076391 442.78783462 779 445 C778.34 445 777.68 445 777 445 C768.45439183 456.58661288 762.90998902 469.95249906 760 484 C759.82799072 484.77988281 759.65598145 485.55976563 759.47875977 486.36328125 C757.21137287 498.85067465 758.38330502 512.91494606 762 525 C762.31710937 526.12148438 762.63421875 527.24296875 762.9609375 528.3984375 C770.19048782 551.2151034 786.56903772 568.16380156 807.12890625 579.765625 C828.34746991 590.28195943 852.92429177 591.66477725 875.47265625 584.96875 C887.08241522 580.79318663 898.20735048 574.72846959 907 566 C907.9075 565.113125 908.815 564.22625 909.75 563.3125 C910.86375 562.1678125 910.86375 562.1678125 912 561 C912.763125 560.278125 913.52625 559.55625 914.3125 558.8125 C916.22713951 557.16877727 916.22713951 557.16877727 916 555 C916.66 555 917.32 555 918 555 C919.53124252 552.84094805 920.90567131 550.71054644 922.25 548.4375 C922.65041504 547.76074219 923.05083008 547.08398438 923.46337891 546.38671875 C935.88068211 524.85209417 939.71296254 500.48051675 933.328125 476.328125 C927.13010014 455.14041541 912.98991737 434.49737849 893.375 423.6875 C891.58835177 422.78169929 889.79707926 421.88492539 888 421 C887.33484375 420.63261719 886.6696875 420.26523437 885.984375 419.88671875 C856.77079124 403.99109229 821.45932591 410.17307936 795 428 Z M602 447 C599.58025304 449.66841298 599.58025304 449.66841298 599 453 C598.34 453 597.68 453 597 453 C585.14054046 474.14936951 578.41291163 495.88536857 584.6875 520.25 C585.40831875 522.51651811 586.176915 524.7685845 587 527 C587.39703125 528.08667969 587.7940625 529.17335938 588.203125 530.29296875 C590.55544503 536.28542958 593.26458566 541.7502285 597 547 C597.66 547 598.32 547 599 547 C599.268125 547.58265625 599.53625 548.1653125 599.8125 548.765625 C607.06219598 562.40650032 623.11163789 571.8219277 637.33081055 576.37646484 C657.64862638 582.53028364 678.8979957 581.38344071 698 572 C698.79921875 571.608125 699.5984375 571.21625 700.421875 570.8125 C720.2622135 560.41342603 733.09915568 542.91306721 740 522 C744.32120364 508.01349548 743.55421646 489.77238953 739 476 C738.64808594 474.91589844 738.29617188 473.83179688 737.93359375 472.71484375 C733.36341786 459.81880287 725.86065784 449.37007785 716 440 C715.34 440 714.68 440 714 440 C714 439.34 714 438.68 714 438 C711.92533322 436.45838629 709.87117878 435.05958333 707.6875 433.6875 C707.05030029 433.28450684 706.41310059 432.88151367 705.7565918 432.46630859 C671.34316082 411.09081163 629.73582536 418.32189402 602 447 Z M435 446 C435 446.66 435 447.32 435 448 C434.42765625 448.22429687 433.8553125 448.44859375 433.265625 448.6796875 C423.32604208 454.47206513 415.80977894 471.14266499 412.8359375 481.86328125 C408.39720348 501.83758433 411.33113643 521.55361363 422 539 C425.27332568 543.66793887 428.90352802 548.03455996 433 552 C433.66 552 434.32 552 435 552 C435 552.66 435 553.32 435 554 C436.9056498 555.54209181 438.79040614 556.93754388 440.8125 558.3125 C441.40417969 558.71549316 441.99585938 559.11848633 442.60546875 559.53369141 C458.97003312 570.4331585 477.27944243 573.20429557 496.59375 570.49609375 C499.4884656 569.82954739 502.20731862 569.0092564 505 568 C506.00160156 567.64808594 507.00320313 567.29617188 508.03515625 566.93359375 C515.11187836 564.22278869 521.02358132 560.63066483 527 556 C527.96679688 555.26330078 527.96679688 555.26330078 528.953125 554.51171875 C530.35319479 553.40278497 531.68628894 552.20999702 533 551 C533 550.34 533 549.68 533 549 C533.66 549 534.32 549 535 549 C536.70629489 546.9313062 538.2715859 544.87523148 539.8125 542.6875 C540.26246338 542.0488501 540.71242676 541.4102002 541.17602539 540.75219727 C551.87449542 525.22691252 556.1959215 506.33014519 552.8125 487.75 C548.51411595 467.75751603 538.68281583 451.85634081 522 440 C496.27097433 424.31607897 457.63703911 423.29265953 435 446 Z M254 457 C254 457.66 254 458.32 254 459 C253.34 459 252.68 459 252 459 C242.53282504 468.18201909 237.8280591 483.55906866 237.56860352 496.38793945 C237.53064032 515.74461475 242.36745039 530.4276826 255.77734375 544.87109375 C268.45603336 557.01500559 283.32115656 562.5009864 300.640625 563.1328125 C313.76177156 562.62354425 326.23076608 558.47924393 337 551 C337.99 550.34 338.98 549.68 340 549 C340 548.34 340 547.68 340 547 C340.58910156 546.74476563 341.17820312 546.48953125 341.78515625 546.2265625 C352.19422333 540.4621056 357.47601867 526.58549776 361 516 C364.50673995 500.72141339 362.96154893 483.33898003 355.1875 469.6875 C352.10258066 464.95415047 348.86942524 460.12871662 345 456 C344.34 456 343.68 456 343 456 C342.505 454.515 342.505 454.515 342 453 C327.25728025 440.44399945 310.63747647 436.98984999 291.68994141 437.77783203 C277.45742715 438.95332559 263.61861981 446.55456473 254 457 Z M76.375 464.5625 C66.12341254 476.8213913 62.87208367 491.08226015 63.75292969 506.63964844 C64.73452302 516.01716257 68.25043084 525.54109947 74 533 C74.66 533 75.32 533 76 533 C76.2578125 533.59039063 76.515625 534.18078125 76.78125 534.7890625 C81.33930647 543.05784442 92.38778347 548.91562478 101 552 C115.59706773 555.68337223 130.28217428 554.70497831 143.66015625 547.44140625 C156.81705852 539.33640302 166.3304969 527.69365222 170.4375 512.625 C173.06008638 497.00604112 170.24191077 482.50155119 162 469 C152.4110519 455.85324774 139.74212287 448.92655183 124.02734375 446.33203125 C105.54207386 444.30461455 89.06866166 451.33169007 76.375 464.5625 Z M606 632 C604.7366215 634.14137709 604.7366215 634.14137709 604 636 C603.34 636 602.68 636 602 636 C596.16841077 643.26052169 592.08590175 651.25856728 589 660 C588.69191406 660.84691406 588.38382813 661.69382812 588.06640625 662.56640625 C581.96142506 681.69924203 584.93687317 702.58520293 593.15625 720.5234375 C596.3154909 726.60711086 600.60915352 731.76923781 605 737 C605.7734375 737.98613281 606.546875 738.97226562 607.34375 739.98828125 C610.03430863 743.20639034 613.07530704 745.60228343 616.5 748 C617.11093506 748.42933838 617.72187012 748.85867676 618.35131836 749.30102539 C636.53359274 761.74350178 657.75787104 765.0189964 679.38671875 761.37890625 C689.81406856 758.88565045 700.08253131 753.94497913 709 748 C709 747.34 709 746.68 709 746 C709.58136719 745.731875 710.16273438 745.46375 710.76171875 745.1875 C718.46153819 741.10243 723.49665741 734.25425323 728 727 C728.61101562 726.0203125 729.22203125 725.040625 729.8515625 724.03125 C734.73270214 715.63984398 737.06434671 707.40769124 739 698 C739.19335938 697.16210938 739.38671875 696.32421875 739.5859375 695.4609375 C742.67192033 677.11971877 737.31393816 657.0587313 727.1015625 641.78515625 C720.29803004 632.2552202 720.29803004 632.2552202 711 626 C711 625.34 711 624.68 711 624 C678.53357494 600.81686495 634.20780669 602.13615769 606 632 Z M439 632 C438.41863281 632.44859375 437.83726562 632.8971875 437.23828125 633.359375 C424.05803965 643.90356828 416.54007651 659.47740706 414 676 C412.5878025 695.42878691 416.39479541 713.51013978 429.10546875 728.8515625 C429.73066406 729.56054688 430.35585938 730.26953125 431 731 C431.65613281 731.75023437 432.31226563 732.50046875 432.98828125 733.2734375 C445.52197034 746.70075341 461.61376625 752.80939858 479.625 754.203125 C498.15783711 754.56890468 515.20000974 748.48024067 529 736 C529.60972656 735.47019531 530.21945312 734.94039062 530.84765625 734.39453125 C543.66984602 722.53048313 549.92464512 705.49349412 551.28515625 688.421875 C551.7329466 671.05539722 546.48462674 655.71448806 536 642 C535.47664062 641.2471875 534.95328125 640.494375 534.4140625 639.71875 C533.71410156 638.86796875 533.71410156 638.86796875 533 638 C532.34 638 531.68 638 531 638 C530.73574219 637.39671875 530.47148438 636.7934375 530.19921875 636.171875 C525.4630932 627.59439681 511.77478647 622.17548276 502.87890625 618.82421875 C480.62383528 612.71782086 456.72374934 617.32674347 439 632 Z M285 627 C284.02546875 627.23460937 283.0509375 627.46921875 282.046875 627.7109375 C267.34549312 631.90583442 254.83156829 642.52934018 247.125 655.66796875 C239.09653819 672.31030105 237.82177733 689.1120422 243.75 706.625 C249.74181524 721.83331649 260.41666557 733.23926826 275.16308594 740.20263672 C290.68954084 746.94232328 306.60545254 746.73522463 322.38671875 741.15625 C338.03067606 734.82222191 349.64518632 722.38994067 356.3125 707.0625 C359.51110776 698.40017597 360.62206003 689.18952317 360 680 C359.94328125 679.10023438 359.8865625 678.20046875 359.828125 677.2734375 C358.0944869 661.9596343 348.81563515 647.63637787 337.3125 637.75 C322.22141185 626.24537416 303.35331146 622.48607745 285 627 Z M434.625 823.9375 C423.64065272 835.72951987 417.49233779 849.93960288 416 866 C415.92910156 866.72960937 415.85820312 867.45921875 415.78515625 868.2109375 C415.03367035 884.38291409 421.48662109 899.37140885 431 912 C431.66 912.99 432.32 913.98 433 915 C433.66 915 434.32 915 435 915 C435.33 915.99 435.66 916.98 436 918 C436.66 918 437.32 918 438 918 C438 918.66 438 919.32 438 920 C446.78767247 927.42277866 456.94898429 932.13061346 468 935 C468.61109619 935.17273438 469.22219238 935.34546875 469.85180664 935.5234375 C480.5084808 937.88755024 493.90278599 936.9069622 504 933 C504.82113281 932.73316406 505.64226562 932.46632813 506.48828125 932.19140625 C520.54747246 927.27178258 533.64467032 915.5172412 540.79296875 902.5390625 C545.74697334 892.11801725 548.34952725 882.06619133 548.25 870.5625 C548.25773438 869.67240234 548.26546875 868.78230469 548.2734375 867.86523438 C548.22895733 852.64189748 542.52727728 838.86177569 533 827 C532.34 827 531.68 827 531 827 C530.731875 826.360625 530.46375 825.72125 530.1875 825.0625 C529.11332248 822.66868314 529.11332248 822.66868314 526 822 C525.505 820.515 525.505 820.515 525 819 C497.49019087 796.93873559 459.60638978 800.1594527 434.625 823.9375 Z " fill="#FEFEFE" transform="translate(0,0)"/>
</svg>
