<svg xmlns="http://www.w3.org/2000/svg" xmlns:xlink="http://www.w3.org/1999/xlink" width="1000" height="1000" viewBox="0 0 1000 1000">
  <defs>
    <clipPath id="clip-path">
      <rect id="Rechteck_1" data-name="Rechteck 1" width="1000" height="1000" fill="none"/>
    </clipPath>
  </defs>
  <g id="Gruppe_maskieren_1" data-name="Gruppe maskieren 1" clip-path="url(#clip-path)">
    <path id="github-mark-white" d="M577.039-40.273c-149.724,0-541.35-86.574-632.9,18.01C-133.73,66.691,0,376.222,0,504.2,0,727.08-186.727,988.965,12.139,1055.739c67.811,18.5,347.163-61.67,350.492-61.789,4.718-.166,2.563,5.973,6.035,3.961,3.02-1.748-1.164,23.12,3.112,4.149a13.667,13.667,0,0,1,0-1.7c2.633-4.161,4.41-37.085,4.41-42.043,0-11.689-.82-51.755-.82-93.5-139.222,30.057-168.214-60.1-168.214-60.1-22.374-58.434-55.525-73.453-55.525-73.453-45.567-30.887,3.319-30.887,3.319-30.887,50.546,3.34,77.069,51.755,77.069,51.755,44.738,76.793,116.828,55.095,145.83,41.736,4.139-32.557,17.405-55.095,31.492-67.614C298.3,714.562,181.47,671.156,181.47,477.484c0-55.095,19.874-100.17,51.366-135.227-4.969-12.519-22.374-64.284,4.979-133.567,0,0,42.258-13.359,137.542,51.755a477.111,477.111,0,0,1,250.242,0c95.294-65.114,137.552-51.755,137.552-51.755,27.353,69.283,9.937,121.049,4.969,133.567C800.441,377.314,819.5,422.39,819.5,477.484c0,193.672-116.828,236.237-228.7,248.766,18.235,15.858,33.971,45.906,33.971,93.491,0,67.614-.82,121.878-.82,138.567,0,13.359,9.357,115.07,34.21,110.06,106-35.6,293.737,78.955,354.9-12.63,53.569-80.214-12.923-447.452-12.923-551.537.37-126.028,155.814-394.946,97.424-492.085C1026.511-106.078,728.246-40.273,577.039-40.273Z" transform="translate(-0.139 8.263)" fill="#fff" fill-rule="evenodd"/>
  </g>
</svg>
