<svg xmlns="http://www.w3.org/2000/svg" xmlns:xlink="http://www.w3.org/1999/xlink" width="2000" height="2000" viewBox="0 0 2000 2000">
  <defs>
    <clipPath id="clip-iconMotify_white">
      <rect width="2000" height="2000"/>
    </clipPath>
  </defs>
  <g id="iconMotify_white" clip-path="url(#clip-iconMotify_white)">
    <path id="Icon_1" data-name="Icon 1" d="M2012.133,858.106l-381.2,254.772-381.2-254.772C1027.229,709.4,728.82,868.889,728.82,1136.5v487.787A300.886,300.886,0,0,0,862,1873.49l680.455,454.8a159.213,159.213,0,0,0,176.951,0l680.454-454.8a300.887,300.887,0,0,0,133.176-249.2V1136.5c0-267.616-298.426-427.1-520.917-278.4Zm204.8,879.439-573.156,383.067a23.1,23.1,0,0,1-25.669,0l-366.728-245.1A144.9,144.9,0,0,1,1215,1669.434h0a144.887,144.887,0,0,1,197.427-34.86L1624.461,1776.3a11.7,11.7,0,0,0,12.965,0l418.482-279.7a144.9,144.9,0,0,1,179.183,14.349h0c68.492,63.68,59.613,174.614-18.157,226.593Z" transform="translate(-630.926 -578.277)" fill="#fff"/>
  </g>
</svg>
