<?xml version="1.0" encoding="UTF-8"?>
<svg version="1.1" xmlns="http://www.w3.org/2000/svg" width="1000" height="1000">
<path d="M0 0 C1.18315292 -0.00997513 2.36630585 -0.01995026 3.58531189 -0.03022766 C4.87479233 -0.03089233 6.16427277 -0.03155701 7.49282837 -0.03224182 C8.8713577 -0.03986749 10.24988278 -0.04829569 11.62840271 -0.0574646 C15.36606901 -0.0793748 19.10365352 -0.08820364 22.84137678 -0.09329104 C25.17839619 -0.09693836 27.51539428 -0.10318032 29.85240555 -0.11029243 C38.01071359 -0.13477364 46.16895814 -0.14783621 54.32730103 -0.15138245 C61.92380378 -0.15501799 69.51990258 -0.18491783 77.11628187 -0.22678703 C83.64553913 -0.26150891 90.17466261 -0.2769312 96.70401156 -0.27762848 C100.60051581 -0.27842058 104.49660823 -0.28712775 108.39301682 -0.31562614 C112.05892349 -0.34184031 115.72407784 -0.34399419 119.39003563 -0.3279705 C121.36989958 -0.32529743 123.3497491 -0.34731621 125.32948303 -0.37016296 C132.61513379 -0.31032538 136.73081129 0.18528247 142.09292603 5.27415466 C145.55043389 9.99941542 146.21580082 14.03502547 146.23336792 19.79522705 C146.23907806 20.91810623 146.24478821 22.04098541 146.25067139 23.19789124 C146.25234818 25.03932205 146.25234818 25.03932205 146.25405884 26.91795349 C146.25902374 28.214272 146.26398865 29.51059052 146.269104 30.84619141 C146.28220542 34.40002972 146.28866852 37.95384915 146.29311466 41.50770783 C146.29604898 43.72963542 146.30015446 45.95155789 146.30461884 48.17348289 C146.31828769 55.13013523 146.32795739 62.08677581 146.33182073 69.04344064 C146.33630041 77.06512659 146.35384663 85.08664206 146.38282132 93.10827619 C146.40445905 99.31478784 146.41452612 105.52125159 146.41586185 111.72780055 C146.41690836 115.43195099 146.42278332 119.13594103 146.44068146 122.84005165 C146.46026952 126.9741966 146.45586487 131.10798597 146.44937134 135.24217224 C146.45858612 136.46372009 146.4678009 137.68526794 146.47729492 138.9438324 C146.43880797 146.76221685 145.89444275 151.95656907 140.71792603 158.08665466 C136.43099995 161.65909306 132.81913497 162.52356516 127.29974365 162.53485107 C126.14183319 162.54193588 124.98392273 162.54902069 123.79092407 162.55632019 C122.52949585 162.55384277 121.26806763 162.55136536 119.96841431 162.54881287 C118.61944294 162.55316262 117.27047403 162.55834665 115.92150879 162.56430054 C112.26439879 162.57767448 108.60739223 162.57827093 104.95026255 162.57573724 C101.8937093 162.57466629 98.83717687 162.57955415 95.78062809 162.58434266 C88.56716593 162.59543261 81.35375586 162.59587835 74.14028931 162.58982849 C66.70748319 162.58379034 59.27486644 162.59609676 51.84209263 162.61739856 C45.45296338 162.63503368 39.06389431 162.64101285 32.67474163 162.63776082 C28.86219119 162.63595062 25.0497758 162.63855757 21.23724747 162.65247536 C17.65026943 162.66508003 14.06358577 162.66308492 10.47661209 162.65006447 C8.53972858 162.64658325 6.60283596 162.65785765 4.66598511 162.66963196 C-1.62783298 162.63169048 -6.3586954 162.35030431 -11.90707397 159.27415466 C-11.90707397 158.61415466 -11.90707397 157.95415466 -11.90707397 157.27415466 C-12.89707397 156.94415466 -13.88707397 156.61415466 -14.90707397 156.27415466 C-16.85615952 152.62087087 -17.1595263 149.49454243 -17.16777039 145.39831543 C-17.17485519 144.2221315 -17.18194 143.04594757 -17.1892395 141.8341217 C-17.18552338 139.91157059 -17.18552338 139.91157059 -17.18173218 137.95018005 C-17.18608178 136.57988203 -17.19126576 135.20958643 -17.19721985 133.83929443 C-17.21059416 130.12440261 -17.2111903 126.40961263 -17.20865655 122.69470143 C-17.20758581 119.59083281 -17.21247282 116.4869847 -17.21726197 113.38312048 C-17.22835164 106.05942937 -17.22879755 98.73578956 -17.2227478 91.41209412 C-17.21670706 83.86225362 -17.22902273 76.31259945 -17.25031787 68.76279074 C-17.26794267 62.27516432 -17.27393387 55.78759716 -17.27068013 49.29994768 C-17.26886859 45.4276262 -17.27149054 41.55543765 -17.28539467 37.68313789 C-17.29798283 34.04117239 -17.29601979 30.39949705 -17.28298378 26.75753593 C-17.27949599 24.78825497 -17.29078859 22.81896511 -17.30255127 20.84971619 C-17.2920298 19.08121056 -17.2920298 19.08121056 -17.28129578 17.27697754 C-17.28146352 16.25659425 -17.28163126 15.23621096 -17.28180408 14.18490696 C-16.837555 10.73415935 -15.60285882 8.28858136 -13.90707397 5.27415466 C-13.24707397 5.27415466 -12.58707397 5.27415466 -11.90707397 5.27415466 C-11.57707397 4.28415466 -11.24707397 3.29415466 -10.90707397 2.27415466 C-7.247517 0.32138795 -4.10344292 0.01859802 0 0 Z M9.21792603 38.39915466 C5.6767808 43.10287953 5.6767808 43.10287953 4.7706604 48.69456482 C4.75144531 49.58624359 4.73223022 50.47792236 4.71243286 51.3966217 C4.70393311 52.35909821 4.69543335 53.32157471 4.68667603 54.31321716 C4.67527588 55.30864532 4.66387573 56.30407349 4.65213013 57.32966614 C4.63322806 59.43953706 4.62016131 61.54946705 4.61245728 63.65940857 C4.5931217 66.86669697 4.53112161 70.07137866 4.46792603 73.27806091 C4.45485732 75.33143116 4.44435977 77.3848197 4.43667603 79.43821716 C4.41198242 80.38854828 4.38728882 81.33887939 4.36184692 82.31800842 C4.40838738 89.3786491 6.38739526 93.98874733 11.09292603 99.27415466 C13.87054336 101.59062592 16.758208 103.51598928 19.84292603 105.39915466 C21.44760499 106.42178873 23.05177549 107.44522112 24.65542603 108.46946716 C25.80398071 109.19118103 25.80398071 109.19118103 26.97573853 109.92747498 C29.65505949 111.63171096 32.2544673 113.43540197 34.84292603 115.27415466 C38.22586458 117.66346271 41.62462171 120.0091396 45.09292603 122.27415466 C45.99655884 122.86712341 46.90019165 123.46009216 47.83120728 124.07102966 C48.82507446 124.71556091 49.81894165 125.36009216 50.84292603 126.02415466 C51.78651978 126.63774841 52.73011353 127.25134216 53.70230103 127.88352966 C55.92011216 129.44176027 55.92011216 129.44176027 58.09292603 129.27415466 C58.09292603 129.93415466 58.09292603 130.59415466 58.09292603 131.27415466 C61.42654061 132.94096195 64.51660725 132.99900319 68.09292603 132.27415466 C70.73537999 130.80224229 73.04973801 129.10181843 75.45620728 127.27024841 C78.09074361 125.27580683 80.7879892 123.51883328 83.59292603 121.77415466 C87.91863365 119.04944218 92.11255416 116.19010777 96.28042603 113.23118591 C98.45221838 111.7199804 100.63523245 110.24310602 102.84292603 108.78587341 C103.50324829 108.34992859 104.16357056 107.91398376 104.84390259 107.46482849 C106.14070855 106.61132491 107.43942957 105.76072125 108.74038696 104.91355896 C110.54384064 103.72587781 112.32389787 102.51247437 114.09292603 101.27415466 C114.64786743 100.88775818 115.20280884 100.50136169 115.77456665 100.10325623 C119.72567459 97.11921971 121.74103174 93.96021132 123.09292603 89.27415466 C123.50165312 85.98679927 123.51413827 82.74003213 123.49136353 79.43040466 C123.4942337 78.50248108 123.49710388 77.5745575 123.50006104 76.61851501 C123.50209379 74.66534308 123.49661935 72.71215042 123.48403931 70.75901794 C123.46797447 67.78312815 123.48391496 64.80859637 123.50308228 61.83274841 C123.5010997 59.92779752 123.49725574 58.02284747 123.49136353 56.11790466 C123.49743622 55.23542053 123.50350891 54.3529364 123.50976562 53.44371033 C123.43353032 46.68986318 122.26956496 41.94831107 117.90542603 36.58665466 C111.97094587 31.70719321 106.75044037 29.4500795 98.95230103 29.76243591 C89.13514287 31.5193317 80.13835116 39.36468782 72.42105103 45.34446716 C71.54964478 46.00188904 70.67823853 46.65931091 69.78042603 47.33665466 C69.00054321 47.94638123 68.2206604 48.55610779 67.41714478 49.18431091 C65.09292603 50.27415466 65.09292603 50.27415466 62.67495728 49.71556091 C59.66169543 48.0334223 56.89759895 46.16150749 54.09292603 44.14915466 C31.76505116 27.93881903 31.76505116 27.93881903 9.21792603 38.39915466 Z " fill="#F5F5F5" transform="translate(171.90707397460938,418.72584533691406)"/>
<path d="M0 0 C0.95068359 -0.02900391 1.90136719 -0.05800781 2.88085938 -0.08789062 C7.02154372 -0.1255069 9.90810258 -0.08650186 13.6328125 1.8203125 C16.36454865 5.1337111 17.76056431 8.50156152 19.25 12.5 C19.85607178 14.04584717 20.4628347 15.59142357 21.0703125 17.13671875 C21.35293945 17.86938965 21.63556641 18.60206055 21.92675781 19.35693359 C23.90520181 24.44272833 26.2267107 29.36711564 28.6015625 34.27734375 C35.76204273 49.14936345 35.76204273 49.14936345 37.6875 57.3125 C39.92072057 55.26125428 41.27011046 53.4681527 42.4921875 50.69921875 C42.82186523 49.95994141 43.15154297 49.22066406 43.49121094 48.45898438 C43.84473633 47.64751953 44.19826172 46.83605469 44.5625 46 C44.94180664 45.14857422 45.32111328 44.29714844 45.71191406 43.41992188 C47.9068893 38.46688987 50.041013 33.490031 52.1366272 28.49433899 C53.27922706 25.77351669 54.43145449 23.05680585 55.58355713 20.33999634 C56.42703383 18.33734958 57.25433422 16.32850136 58.08154297 14.3190918 C58.61089787 13.06657485 59.14097659 11.81436349 59.671875 10.5625 C60.13303711 9.45390625 60.59419922 8.3453125 61.06933594 7.203125 C62.89822406 3.93607078 64.53071226 2.30605821 67.6875 0.3125 C71.00095894 -0.44799451 74.29571909 -0.29178281 77.6875 -0.25 C78.57695312 -0.27384766 79.46640625 -0.29769531 80.3828125 -0.32226562 C81.24648438 -0.32033203 82.11015625 -0.31839844 83 -0.31640625 C83.77988281 -0.31713135 84.55976563 -0.31785645 85.36328125 -0.31860352 C88.88436484 0.63748904 90.37897325 2.5381579 92.6875 5.3125 C93.29550171 8.41265869 93.29550171 8.41265869 93.27099609 11.92285156 C93.27384613 13.24061584 93.27669617 14.55838013 93.27963257 15.91607666 C93.25741738 17.34510356 93.23450258 18.77411973 93.2109375 20.203125 C93.20414501 21.67331148 93.19942466 23.14350887 93.19668579 24.6137085 C93.18602829 27.68713208 93.15937918 30.75982442 93.11962891 33.83300781 C93.06858321 37.7798609 93.04358696 41.72629539 93.02869225 45.67343521 C93.01393673 49.43339021 92.98869981 53.19324615 92.9609375 56.953125 C92.95602673 57.67369331 92.95111595 58.39426163 92.94605637 59.13666534 C92.92984837 61.16440585 92.90532599 63.19207484 92.88037109 65.21972656 C92.86751068 66.37490784 92.85465027 67.53008911 92.84140015 68.72027588 C92.6875 71.3125 92.6875 71.3125 91.6875 72.3125 C89.35589945 72.41159302 87.02120058 72.44220504 84.6875 72.4375 C83.40875 72.44007813 82.13 72.44265625 80.8125 72.4453125 C77.6875 72.3125 77.6875 72.3125 76.6875 71.3125 C76.5939081 69.59384591 76.57005389 67.87134256 76.57397461 66.15014648 C76.57408791 64.49854774 76.57408791 64.49854774 76.57420349 62.81358337 C76.57936478 61.6156868 76.58452606 60.41779022 76.58984375 59.18359375 C76.5912587 57.96422623 76.59267365 56.7448587 76.59413147 55.48854065 C76.59975033 51.5756693 76.61230604 47.66285419 76.625 43.75 C76.63001257 41.10481853 76.6345759 38.45963617 76.63867188 35.81445312 C76.64972589 29.31378274 76.66648236 22.81314539 76.6875 16.3125 C76.0275 16.3125 75.3675 16.3125 74.6875 16.3125 C74.56761719 17.02277344 74.44773437 17.73304688 74.32421875 18.46484375 C72.5010232 26.61889012 68.2931227 34.23753838 64.48828125 41.62109375 C62.98041839 44.63072182 61.63153753 47.69675587 60.29296875 50.78515625 C59.86395264 51.76500488 59.43493652 52.74485352 58.99291992 53.75439453 C58.13757991 55.7171815 57.29479207 57.68549732 56.46606445 59.65966797 C53.99841544 65.28854331 52.03961387 69.11582232 46.6875 72.3125 C40.98672502 73.41329689 34.70694626 73.6248737 29.296875 71.2734375 C24.64916676 67.65630804 22.71982355 62.68428032 20.6875 57.3125 C20.07350507 55.87026511 19.44839627 54.43271323 18.8125 53 C18.48121094 52.25234375 18.14992188 51.5046875 17.80859375 50.734375 C16.56052522 48.03819908 15.22367044 45.39725762 13.875 42.75 C11.38161741 37.81412017 9.08789695 32.81581244 6.875 27.75 C6.42193481 26.7134729 6.42193481 26.7134729 5.9597168 25.65600586 C4.76467868 22.89672808 3.63889115 20.16667345 2.6875 17.3125 C2.67941315 17.97204681 2.67132629 18.63159363 2.66299438 19.31112671 C2.57714428 26.15651207 2.47764997 33.00160129 2.37011719 39.84667969 C2.3317602 42.40359537 2.29691938 44.96056625 2.265625 47.51757812 C2.22012024 51.18639909 2.1621019 54.85483773 2.1015625 58.5234375 C2.08423569 60.2469191 2.08423569 60.2469191 2.06655884 62.00521851 C2.04668915 63.0661673 2.02681946 64.12711609 2.00634766 65.22021484 C1.99302399 66.15731293 1.97970032 67.09441101 1.9659729 68.05990601 C1.6875 70.3125 1.6875 70.3125 -0.3125 72.3125 C-3.5703125 72.5078125 -3.5703125 72.5078125 -7.4375 72.4375 C-9.35949219 72.41042969 -9.35949219 72.41042969 -11.3203125 72.3828125 C-12.30773437 72.35960937 -13.29515625 72.33640625 -14.3125 72.3125 C-15.65819071 69.62111857 -15.45450713 67.51870536 -15.47363281 64.50512695 C-15.48324036 63.28658524 -15.4928479 62.06804352 -15.50274658 60.81257629 C-15.50759602 59.47531318 -15.51187449 58.1380479 -15.515625 56.80078125 C-15.52137855 55.43035378 -15.52713626 54.05992633 -15.53289795 52.6894989 C-15.54341112 49.81195704 -15.54925087 46.93444313 -15.55273438 44.05688477 C-15.55820249 40.38282098 -15.58219249 36.70913092 -15.61070633 33.03518391 C-15.629406 30.20146132 -15.63454231 27.36782714 -15.63607025 24.53404808 C-15.64054316 22.52504045 -15.65915971 20.51608027 -15.67803955 18.50715637 C-15.64976797 6.87952203 -15.64976797 6.87952203 -12.3125 1.3125 C-8.57439305 -0.55655348 -4.11418822 0.04133478 0 0 Z " fill="#E7E7E7" transform="translate(360.3125,463.6875)"/>
<path d="M0 0 C1.04641159 -0.00524185 2.09282318 -0.0104837 3.17094421 -0.0158844 C5.37363808 -0.0222755 7.57636621 -0.02100561 9.77905273 -0.01245117 C13.11700427 -0.00395642 16.45323325 -0.03272095 19.79101562 -0.06445312 C43.52237639 -0.14306725 43.52237639 -0.14306725 51.52490234 5.66870117 C58.73527177 13.02772469 58.30134616 24.77400585 58.21533203 34.31054688 C58.19924343 36.43034191 58.21525618 38.54823123 58.234375 40.66796875 C58.24795912 49.51356034 58.23113533 60.38569906 51.59545898 67.19848633 C41.55353189 74.20084459 27.91984709 73.01617742 16.31225586 72.90014648 C13.13277336 72.87105765 9.95495085 72.87959833 6.77539062 72.89257812 C4.72525243 72.8863425 2.67511941 72.87795295 0.625 72.8671875 C-0.7785096 72.87159096 -0.7785096 72.87159096 -2.21037292 72.87608337 C-11.16734192 72.74960357 -19.89256608 71.17621778 -26.40185547 64.63671875 C-32.52658629 57.03011664 -31.63363814 45.63991506 -31.55078125 36.43359375 C-31.56238281 35.14453125 -31.57398438 33.85546875 -31.5859375 32.52734375 C-31.53107668 14.53299613 -31.53107668 14.53299613 -26.37255859 8.23046875 C-18.99002853 0.94885239 -9.95325892 -0.02958247 0 0 Z M-11.74853516 18.21020508 C-15.24057279 23.65016175 -14.39588504 29.98657392 -14.42578125 36.24609375 C-14.44640625 37.31408203 -14.46703125 38.38207031 -14.48828125 39.48242188 C-14.51838898 45.56794598 -14.23571756 50.10841332 -11.17578125 55.43359375 C-8.85519853 56.59388511 -7.46599351 56.57809688 -4.88134766 56.6105957 C-3.99347565 56.62343094 -3.10560364 56.63626617 -2.19082642 56.64949036 C-1.22937714 56.65687729 -0.26792786 56.66426422 0.72265625 56.671875 C1.70916168 56.67994675 2.69566711 56.68801849 3.71206665 56.69633484 C5.80184163 56.71017913 7.89163926 56.72089973 9.98144531 56.72875977 C13.17947091 56.74598737 16.3764668 56.78987235 19.57421875 56.83398438 C21.60285697 56.84410984 23.63150399 56.8526264 25.66015625 56.859375 C27.09625748 56.88563713 27.09625748 56.88563713 28.56137085 56.91242981 C33.82910709 56.95524269 33.82910709 56.95524269 38.39697266 54.59448242 C41.96845995 49.18715536 41.04713383 42.86078175 41.07421875 36.62109375 C41.09484375 35.44482422 41.11546875 34.26855469 41.13671875 33.05664062 C41.26677666 24.73984062 41.26677666 24.73984062 37.82421875 17.43359375 C35.50363603 16.27330239 34.11443101 16.28909062 31.52978516 16.2565918 C30.64191315 16.24375656 29.75404114 16.23092133 28.83926392 16.21769714 C27.87781464 16.21031021 26.91636536 16.20292328 25.92578125 16.1953125 C24.93927582 16.18724075 23.95277039 16.17916901 22.93637085 16.17085266 C20.84659587 16.15700837 18.75679824 16.14628777 16.66699219 16.13842773 C13.46896659 16.12120013 10.2719707 16.07731515 7.07421875 16.03320312 C5.04558053 16.02307766 3.01693351 16.0145611 0.98828125 16.0078125 C0.03088043 15.99030441 -0.92652039 15.97279633 -1.91293335 15.95475769 C-7.16016138 15.92209955 -7.16016138 15.92209955 -11.74853516 18.21020508 Z " fill="#E6E6E6" transform="translate(495.17578125,463.56640625)"/>
<path d="M0 0 C1.80994949 0.00636726 1.80994949 0.00636726 3.65646362 0.01286316 C7.47694043 0.0295372 11.2968725 0.06716925 15.1171875 0.10546875 C17.7213465 0.12053012 20.32551384 0.13421597 22.9296875 0.14648438 C29.28403725 0.17940378 35.63807344 0.22948998 41.9921875 0.29296875 C43.35489883 3.01839142 43.16142351 5.25384149 43.1796875 8.29296875 C43.19386719 9.36546875 43.20804688 10.43796875 43.22265625 11.54296875 C42.9921875 14.29296875 42.9921875 14.29296875 40.9921875 16.29296875 C38.75978088 16.55125427 38.75978088 16.55125427 35.94750977 16.56420898 C34.89624405 16.5743956 33.84497833 16.58458221 32.76185608 16.59507751 C31.05249123 16.59828758 31.05249123 16.59828758 29.30859375 16.6015625 C26.91340899 16.62671903 24.51822675 16.6521171 22.12304688 16.67773438 C18.33293286 16.70652005 14.54286269 16.73052722 10.75268555 16.74926758 C7.10442323 16.77085493 3.45667851 16.81028849 -0.19140625 16.8515625 C-1.89773476 16.85173622 -1.89773476 16.85173622 -3.63853455 16.85191345 C-4.69295242 16.86525223 -5.7473703 16.878591 -6.83374023 16.89233398 C-7.7625853 16.89740463 -8.69143036 16.90247528 -9.64842224 16.90769958 C-12.02832151 17.12444885 -12.02832151 17.12444885 -13.75697327 18.49378967 C-15.35443844 20.79154771 -15.73086544 22.72951306 -16.1953125 25.48046875 C-16.43314453 26.83205078 -16.43314453 26.83205078 -16.67578125 28.2109375 C-16.84013672 29.24154297 -16.84013672 29.24154297 -17.0078125 30.29296875 C-15.92120079 30.28963783 -15.92120079 30.28963783 -14.81263733 30.28623962 C-7.99937797 30.26623648 -1.18612297 30.2509945 5.62715816 30.24115658 C9.13027635 30.23592886 12.63337035 30.22883325 16.13647461 30.2175293 C20.15999591 30.20462669 24.18349164 30.19973963 28.20703125 30.1953125 C29.47054916 30.19015121 30.73406708 30.18498993 32.03587341 30.17967224 C33.1970015 30.17959671 34.35812958 30.17952118 35.55444336 30.17944336 C37.0966581 30.17611244 37.0966581 30.17611244 38.67002869 30.17271423 C40.9921875 30.29296875 40.9921875 30.29296875 41.9921875 31.29296875 C42.09069921 33.12412758 42.12191379 34.95916808 42.1171875 36.79296875 C42.12105469 38.2934375 42.12105469 38.2934375 42.125 39.82421875 C41.9921875 42.29296875 41.9921875 42.29296875 40.9921875 43.29296875 C39.18163725 43.38672928 37.36741549 43.41040985 35.55444336 43.40649414 C34.39331528 43.40641861 33.23218719 43.40634308 32.03587341 43.40626526 C30.14059654 43.39852333 30.14059654 43.39852333 28.20703125 43.390625 C26.92107559 43.38921005 25.63511993 43.3877951 24.31019592 43.38633728 C20.88575307 43.38251293 17.46135241 43.37268337 14.03692627 43.3616333 C10.54480561 43.35141739 7.05267816 43.34683928 3.56054688 43.34179688 C-3.29559028 43.33106102 -10.15169937 43.31398559 -17.0078125 43.29296875 C-16.99995728 44.55741821 -16.99995728 44.55741821 -16.99194336 45.84741211 C-16.97493424 48.96524811 -16.96237844 52.08306052 -16.95288086 55.20092773 C-16.94784193 56.55217261 -16.94101073 57.90341201 -16.93237305 59.25463867 C-16.92028831 61.19317309 -16.91511422 63.13174675 -16.91015625 65.0703125 C-16.90230103 66.82202759 -16.90230103 66.82202759 -16.89428711 68.60913086 C-17.0078125 71.29296875 -17.0078125 71.29296875 -18.0078125 72.29296875 C-20.53830652 72.36610442 -23.04086087 72.38544402 -25.5703125 72.35546875 C-26.28123047 72.35095703 -26.99214844 72.34644531 -27.72460938 72.34179688 C-29.48571263 72.32997739 -31.24677286 72.31204138 -33.0078125 72.29296875 C-34.18448456 69.93962464 -34.15287957 68.49058907 -34.18481445 65.8659668 C-34.19764969 64.94708176 -34.21048492 64.02819672 -34.22370911 63.08146667 C-34.23109604 62.08262955 -34.23848297 61.08379242 -34.24609375 60.0546875 C-34.2541655 59.022939 -34.26223724 57.99119049 -34.27055359 56.92817688 C-34.28441037 54.73493129 -34.29512536 52.54166398 -34.30297852 50.34838867 C-34.32004751 47.03195484 -34.36390179 43.71655581 -34.40820312 40.40039062 C-34.59229421 15.55138192 -34.59229421 15.55138192 -28.55151367 7.30493164 C-20.94753419 -0.15442205 -9.96956779 -0.13406403 0 0 Z " fill="#E6E6E6" transform="translate(711.0078125,463.70703125)"/>
<path d="M0 0 C10.80458085 -0.02312312 21.60915586 -0.04091493 32.41375637 -0.05181217 C37.4302247 -0.05704107 42.44667615 -0.06413883 47.46313477 -0.07543945 C52.30009694 -0.0862681 57.13704284 -0.09227679 61.97401619 -0.09487724 C63.82368285 -0.09673153 65.67334857 -0.10035222 67.52300835 -0.10573006 C70.10447014 -0.1129402 72.68586382 -0.11399095 75.26733398 -0.11352539 C76.03985001 -0.11712067 76.81236603 -0.12071594 77.60829163 -0.12442017 C82.88594784 -0.11405216 82.88594784 -0.11405216 84 1 C84.09909302 3.33160055 84.12970504 5.66629942 84.125 8 C84.12886719 9.918125 84.12886719 9.918125 84.1328125 11.875 C84 15 84 15 83 16 C80.6243148 16.0883967 78.27791326 16.11530305 75.90234375 16.09765625 C74.83905602 16.09553383 74.83905602 16.09553383 73.75428772 16.09336853 C71.48198288 16.08775443 69.20977525 16.07519963 66.9375 16.0625 C65.40039204 16.05748681 63.86328255 16.05292359 62.32617188 16.04882812 C58.55074358 16.03778042 54.77538829 16.02050641 51 16 C51.00222061 16.67207489 51.00444122 17.34414978 51.00672913 18.03659058 C51.02879822 25.01153025 51.04391343 31.98646007 51.05493164 38.96142578 C51.0599703 41.56689863 51.0668013 44.17236863 51.07543945 46.77783203 C51.08752544 50.51595764 51.09323288 54.25404597 51.09765625 57.9921875 C51.10281754 59.16304901 51.10797882 60.33391052 51.11329651 61.54025269 C51.11337204 62.62122223 51.11344757 63.70219177 51.11352539 64.81591797 C51.115746 65.77078094 51.11796661 66.72564392 51.12025452 67.70944214 C51 70 51 70 50 72 C44.72 72 39.44 72 34 72 C33.37902235 67.65315644 32.87515711 64.06577066 32.88647461 59.79907227 C32.88655014 58.83860489 32.88662567 57.87813751 32.88670349 56.88856506 C32.89186478 55.87475266 32.89702606 54.86094025 32.90234375 53.81640625 C32.9037587 52.76090073 32.90517365 51.7053952 32.90663147 50.61790466 C32.91220278 47.26607357 32.92474998 43.91431071 32.9375 40.5625 C32.94251871 38.28190201 32.94708097 36.00130297 32.95117188 33.72070312 C32.96130941 28.14708835 32.98089045 22.57362004 33 17 C22.11 16.67 11.22 16.34 0 16 C-1.36538938 13.26922124 -1.13231826 11.04439633 -1.125 8 C-1.12757813 6.9275 -1.13015625 5.855 -1.1328125 4.75 C-1 2 -1 2 0 0 Z " fill="#E1E1E1" transform="translate(558,464)"/>
<path d="M0 0 C14.74505449 -1.50801694 14.74505449 -1.50801694 19.48828125 1.6640625 C21.56885539 4.32826665 23.25737458 7.10258089 25 10 C26.47196458 12.01779001 27.99073546 13.99443411 29.51538086 15.97265625 C34.26608393 22.14071605 38.83265588 28.41998297 43 35 C46.64618284 33.53195264 48.21702279 31.70460854 50.4375 28.5 C51.12070312 27.52933594 51.80390625 26.55867188 52.5078125 25.55859375 C52.89356445 25.0054248 53.27931641 24.45225586 53.67675781 23.88232422 C56.34914938 20.08082257 59.08813687 16.32682652 61.8125 12.5625 C62.37573975 11.78132813 62.93897949 11.00015625 63.51928711 10.1953125 C64.32378296 9.07962891 64.32378296 9.07962891 65.14453125 7.94140625 C65.86153198 6.94669312 65.86153198 6.94669312 66.59301758 5.93188477 C67.05732178 5.29436279 67.52162598 4.65684082 68 4 C68.47115234 3.26676514 68.94230469 2.53353027 69.42773438 1.77807617 C71 0 71 0 72.90112305 -0.45410156 C73.94586792 -0.42268066 73.94586792 -0.42268066 75.01171875 -0.390625 C75.76904297 -0.37773437 76.52636719 -0.36484375 77.30664062 -0.3515625 C78.48516602 -0.30128906 78.48516602 -0.30128906 79.6875 -0.25 C80.48478516 -0.23195313 81.28207031 -0.21390625 82.10351562 -0.1953125 C84.06952449 -0.14822247 86.03491494 -0.07647899 88 0 C88.25408542 3.95838331 88.22169524 4.71996391 85.625 8 C85.07714844 8.59425781 84.52929688 9.18851562 83.96484375 9.80078125 C81.56243679 12.48975763 79.37312808 15.32274806 77.1875 18.1875 C76.75920898 18.74671143 76.33091797 19.30592285 75.88964844 19.88208008 C73.02546633 23.63129232 70.19648411 27.40602907 67.375 31.1875 C63.89022064 35.85450468 60.30248399 40.42179242 56.62890625 44.94140625 C53.86651787 48.43248221 52.75000698 50.43866779 52.62109375 54.8515625 C52.58693359 55.78484375 52.55277344 56.718125 52.51757812 57.6796875 C52.49115234 58.65164063 52.46472656 59.62359375 52.4375 60.625 C52.37782795 62.55481963 52.31424228 64.48452361 52.24609375 66.4140625 C52.22216553 67.2695166 52.1982373 68.1249707 52.17358398 69.00634766 C52 71 52 71 51 72 C48.46950598 72.07313567 45.96695163 72.09247527 43.4375 72.0625 C42.37112305 72.05573242 42.37112305 72.05573242 41.28320312 72.04882812 C39.52209987 72.03700864 37.76103964 72.01907263 36 72 C34.77832516 69.55665031 34.90465611 68.00083708 34.9296875 65.2734375 C34.919375 64.32339844 34.9090625 63.37335937 34.8984375 62.39453125 C34.88299477 60.40499251 34.89025623 58.41512866 34.921875 56.42578125 C34.77544105 48.6543222 32.48627114 45.2949955 27 40 C25.6988091 38.29356015 24.42316197 36.56697263 23.1875 34.8125 C20.13321393 30.54600701 17.01158856 26.34565822 13.8125 22.1875 C13.01457031 21.14980469 12.21664062 20.11210937 11.39453125 19.04296875 C9.70508082 16.89601624 7.99549402 14.85104971 6.19921875 12.80078125 C4 10 4 10 4 7 C3.01 6.67 2.02 6.34 1 6 C-0.25 4.0625 -0.25 4.0625 -1 2 C-0.67 1.34 -0.34 0.68 0 0 Z " fill="#E2E2E2" transform="translate(757,464)"/>
<path d="M0 0 C2.69148602 1.52023544 3.78970072 2.32198593 4.71484375 5.3046875 C4.78832031 6.15289062 4.86179687 7.00109375 4.9375 7.875 C5.02902344 8.71804688 5.12054688 9.56109375 5.21484375 10.4296875 C4.93321138 13.79903474 4.08278567 15.32695119 2 18 C-0.24979118 19.7222736 -2.4262197 21.24855764 -4.8125 22.75 C-5.47467529 23.17901611 -6.13685059 23.60803223 -6.8190918 24.05004883 C-8.87272799 25.37743772 -10.93533576 26.68984618 -13 28 C-14.85097298 29.18430096 -16.70062216 30.370631 -18.54956055 31.55810547 C-19.71807891 32.30669513 -20.88879925 33.05185947 -22.06176758 33.79345703 C-26.46679066 36.59327585 -30.62888252 39.64260059 -34.71875 42.8828125 C-37.88989478 44.43580463 -39.64886138 43.96432505 -43 43 C-45.28125 41.72265625 -45.28125 41.72265625 -47.5 40.0625 C-50.51962096 37.82880778 -53.53637837 35.620177 -56.65234375 33.5234375 C-57.27882812 33.09538818 -57.9053125 32.66733887 -58.55078125 32.22631836 C-59.78287777 31.38467272 -61.02096769 30.55171627 -62.265625 29.72875977 C-66.23003517 26.97638075 -68.28817762 24.5118747 -70 20 C-70.08668393 15.75248732 -69.30351236 14.34903922 -66.5 11.125 C-63.16075934 8.63062746 -60.21267691 8.39804727 -56.125 8.6328125 C-53.22262645 9.13432558 -51.25013838 10.11278716 -49 12 C-49 12.66 -49 13.32 -49 14 C-48.1646875 14.1546875 -48.1646875 14.1546875 -47.3125 14.3125 C-45 15 -45 15 -42.5 16.625 C-40.18251539 18.22750078 -40.18251539 18.22750078 -38.04907227 17.71337891 C-34.66645735 16.53573077 -31.86371328 14.39561251 -28.9375 12.375 C-27.59957247 11.46654279 -26.26102525 10.55899759 -24.921875 9.65234375 C-24.26123047 9.20358887 -23.60058594 8.75483398 -22.91992188 8.29248047 C-7.61414259 -2.01128295 -7.61414259 -2.01128295 0 0 Z " fill="#E9E9E9" transform="translate(275,493)"/>
<path d="M0 0 C5.28 0 10.56 0 16 0 C16.74090328 4.44541968 17.12623983 8.09289925 17.12939453 12.52441406 C17.13254669 13.79883362 17.13569885 15.07325317 17.13894653 16.3862915 C17.13715724 17.76273636 17.13510641 19.13918089 17.1328125 20.515625 C17.13348668 21.9371543 17.13445766 23.35868349 17.13571167 24.7802124 C17.13718134 27.74899399 17.13505634 30.71774537 17.13037109 33.68652344 C17.12465337 37.49534614 17.12797028 41.30409868 17.13394356 45.11291885 C17.13755118 48.04336072 17.13641002 50.97378585 17.13381577 53.90422821 C17.13314813 55.30928302 17.13396923 56.71433935 17.13629532 58.1193924 C17.13882733 60.077316 17.13428566 62.03524493 17.12939453 63.99316406 C17.12859894 65.10757874 17.12780334 66.22199341 17.12698364 67.37017822 C17 70 17 70 16 72 C10.72 72 5.44 72 0 72 C-0.74090328 67.55458032 -1.12623983 63.90710075 -1.12939453 59.47558594 C-1.13254669 58.20116638 -1.13569885 56.92674683 -1.13894653 55.6137085 C-1.13715724 54.23726364 -1.13510641 52.86081911 -1.1328125 51.484375 C-1.13348668 50.0628457 -1.13445766 48.64131651 -1.13571167 47.2197876 C-1.13718134 44.25100601 -1.13505634 41.28225463 -1.13037109 38.31347656 C-1.12465337 34.50465386 -1.12797028 30.69590132 -1.13394356 26.88708115 C-1.13755118 23.95663928 -1.13641002 21.02621415 -1.13381577 18.09577179 C-1.13314813 16.69071698 -1.13396923 15.28566065 -1.13629532 13.8806076 C-1.13882733 11.922684 -1.13428566 9.96475507 -1.12939453 8.00683594 C-1.12859894 6.89242126 -1.12780334 5.77800659 -1.12698364 4.62982178 C-1 2 -1 2 0 0 Z " fill="#DCDCDC" transform="translate(650,464)"/>
<path d="M0 0 C0.97582031 -0.01224609 1.95164062 -0.02449219 2.95703125 -0.03710938 C4.35501953 -0.04000977 4.35501953 -0.04000977 5.78125 -0.04296875 C6.63783203 -0.04707764 7.49441406 -0.05118652 8.37695312 -0.05541992 C10.5 0.1875 10.5 0.1875 12.5 2.1875 C11.89003174 2.17702637 11.28006348 2.16655273 10.65161133 2.15576172 C7.87194993 2.11403379 5.09235461 2.08812078 2.3125 2.0625 C1.35279297 2.04574219 0.39308594 2.02898437 -0.59570312 2.01171875 C-1.99272461 2.00205078 -1.99272461 2.00205078 -3.41796875 1.9921875 C-4.27156982 1.98171387 -5.1251709 1.97124023 -6.00463867 1.96044922 C-8.80726815 2.21545806 -10.94729419 3.03208578 -13.5 4.1875 C-13.17 3.1975 -12.84 2.2075 -12.5 1.1875 C-8.72960943 -0.69769529 -4.14845405 0.00274006 0 0 Z " fill="#5C5C5C" transform="translate(360.5,463.8125)"/>
</svg>
