<?xml version="1.0" encoding="UTF-8"?>
<svg version="1.1" xmlns="http://www.w3.org/2000/svg" width="1000" height="1000">
<path d="M0 0 C330 0 660 0 1000 0 C1000 330 1000 660 1000 1000 C670 1000 340 1000 0 1000 C0 670 0 340 0 0 Z M439 93 C435.0315422 100.93054 431.06697306 108.86298855 427.11260986 116.80056763 C425.25844561 120.52171833 423.40248624 124.2419725 421.54638672 127.9621582 C420.60165362 129.85665476 419.65763868 131.75150963 418.71435547 133.64672852 C413.89972326 143.3186373 409.05527002 152.96708247 403.9921875 162.51171875 C398.47399276 172.91472816 393.2352808 183.45250286 388 194 C382.37190968 205.33888876 376.70031851 216.64106305 370.76708984 227.82373047 C365.67033218 237.46119936 360.84679507 247.23518333 356 257 C350.36064214 268.36158942 344.67750079 279.68643731 338.73303223 290.8918457 C333.82175928 300.177365 329.16843185 309.59075751 324.5 319 C319.44016912 329.19810875 314.36667001 339.38015686 309.03125 349.4375 C303.50007885 359.86534114 298.24773735 370.4274067 293 381 C287.3073035 392.46905055 281.56960378 403.9012999 275.57180786 415.21429443 C271.54185426 422.82858515 267.69531672 430.52893884 263.875 438.25 C260.01586509 446.0486286 256.13159473 453.82162436 252.0078125 461.484375 C248.22717694 468.5125545 244.64236098 475.62756373 241.10095215 482.77874756 C237.73893186 489.56187232 234.35317716 496.33326031 230.97363281 503.10766602 C230.07740196 504.90515725 229.18188938 506.7030068 228.28710938 508.5012207 C223.08813754 518.94769064 217.82700935 529.35140901 212.33364868 539.64680481 C208.96161965 545.9850841 205.90113198 552.43117678 203 559 C205.61240199 560.306201 207.53267787 560.13183862 210.45933533 560.14044189 C211.61890244 560.14615204 212.77846954 560.15186218 213.97317505 560.15774536 C215.89092239 560.15942215 215.89092239 560.15942215 217.84741211 560.16113281 C219.20242956 560.1657602 220.55744571 560.17078475 221.91246033 560.17617798 C225.59837569 560.18931011 229.28427283 560.19574831 232.97020793 560.20018864 C235.27149308 560.20311755 237.57277323 560.20722197 239.87405586 560.21169281 C247.06991012 560.22536878 254.26575296 560.23503542 261.46161932 560.2388947 C269.7765453 560.24337835 278.09130713 560.26093993 286.40618318 560.2898953 C292.82830137 560.31148559 299.25037327 560.32159753 305.67252737 560.32293582 C309.51071671 560.3239856 313.34875177 560.32993002 317.186903 560.34775543 C320.79597251 560.36419085 324.40477101 560.36641394 328.01386452 560.35761642 C329.97302844 560.35647455 331.93218318 560.37022619 333.89129639 560.3843689 C335.05368332 560.37879974 336.21607025 560.37323059 337.41368103 560.36749268 C338.93212569 560.36969252 338.93212569 560.36969252 340.48124599 560.3719368 C343.43314374 559.93603897 344.23003273 559.35010015 346 557 C347.35935915 554.58995556 348.63831738 552.18842511 349.87890625 549.71875 C350.24698395 548.99781158 350.61506165 548.27687317 350.99429321 547.53408813 C352.18885557 545.19197958 353.37556968 542.84598403 354.5625 540.5 C355.79730682 538.07554473 357.03418919 535.65215561 358.27113342 533.22879028 C359.08262739 531.63853672 359.89345329 530.04794208 360.70359802 528.45700073 C363.48838428 522.98980873 366.31071379 517.54442894 369.1875 512.125 C373.30071227 504.35948478 377.34259917 496.55769217 381.375 488.75 C387.88357397 476.14929668 394.43083455 463.56922554 401 451 C407.35154534 438.84272859 413.68900162 426.6783763 420 414.5 C421.17185509 412.24087509 422.34372999 409.98176045 423.515625 407.72265625 C425.84406642 403.23330125 428.16603026 398.74067 430.484375 394.24609375 C431.57279841 392.14316796 432.66133485 390.04030066 433.75 387.9375 C434.25144531 386.96167969 434.75289062 385.98585938 435.26953125 384.98046875 C435.96369141 383.64242187 435.96369141 383.64242187 436.671875 382.27734375 C437.0750293 381.49609131 437.47818359 380.71483887 437.89355469 379.90991211 C439 378 439 378 441 376 C448.32020247 391.10265529 455.63709079 406.20641782 462.86450195 421.35375977 C466.55361087 429.08018604 470.27405608 436.79129753 474 444.5 C478.62800041 454.07524852 483.23507463 463.66012668 487.81640625 473.2578125 C491.22356644 480.39000206 494.65542229 487.51010667 498.0947876 494.62680054 C508.58473404 516.33415009 518.8951265 538.10610742 529 560 C492.7 560 456.4 560 419 560 C424.66300802 571.3889922 424.66300802 571.3889922 430.6875 582.5625 C431.10483398 583.30951172 431.52216797 584.05652344 431.95214844 584.82617188 C434.21552998 588.86589929 436.50627823 592.88918078 438.81640625 596.90234375 C439.79440952 598.60148268 440.77227146 600.30070297 441.75 602 C442.2457251 602.86149658 442.7414502 603.72299316 443.25219727 604.6105957 C447.97358385 612.86308444 452.4496908 621.24121862 456.92871094 629.62695312 C460.52467227 636.3338484 464.25210993 642.92553414 468.17016602 649.44799805 C472.66457759 656.99594154 476.75990939 664.75820121 480.90283203 672.50268555 C484.33020996 678.90700997 487.79938042 685.27829105 491.38696289 691.59399414 C495.31879417 698.52899729 499.15478398 705.51676565 503 712.5 C509.206483 723.77422223 509.206483 723.77422223 515.5 735 C519.72630312 742.46702568 523.86036644 749.9847335 528 757.5 C532.48866729 765.6483505 536.98299924 773.79237381 541.56079102 781.89111328 C545.21795574 788.36814676 548.82702074 794.87186143 552.4375 801.375 C552.76565704 801.9660553 553.09381409 802.5571106 553.43191528 803.16607666 C555.04326943 806.06857009 556.65428496 808.97125113 558.26513672 811.87402344 C560.89457292 816.61189299 563.52628671 821.34849604 566.15869141 826.0847168 C568.60456285 830.48598811 571.04730372 834.88898108 573.48828125 839.29296875 C580.66810385 852.24040278 587.89204505 865.16083636 595.1953125 878.0390625 C597.82397517 882.67777227 600.41937326 887.33442001 603 892 C603.66 892 604.32 892 605 892 C605.45101074 891.12770752 605.45101074 891.12770752 605.91113281 890.23779297 C611.4827619 879.47566287 617.09814934 868.74466077 622.9375 858.125 C627.23562387 850.30523299 631.40439737 842.42766001 635.5 834.5 C640.00784507 825.77869157 644.61800785 817.12445385 649.33984375 808.51733398 C653.43275623 801.05351268 657.47918395 793.56535419 661.5 786.0625 C661.81834808 785.46857452 662.13669617 784.87464905 662.46469116 784.26272583 C667.2610214 775.30816584 671.97737602 766.31393099 676.65454102 757.29663086 C680.47934159 749.94420753 684.43868542 742.67149403 688.43041992 735.40869141 C692.21992684 728.48947153 695.87930487 721.50883891 699.5 714.5 C704.06847952 705.65646695 708.75539803 696.89027996 713.55078125 688.16796875 C717.12148095 681.65614009 720.58303856 675.0936591 724 668.5 C727.81518335 661.141442 731.69820954 653.82815306 735.6875 646.5625 C740.59417127 637.62159926 745.40861789 628.6346051 750.1875 619.625 C750.54254608 618.95573486 750.89759216 618.28646973 751.26339722 617.59692383 C753.46444811 613.4471845 755.66387459 609.29658562 757.86297607 605.14581299 C760.95274697 599.3147391 764.04511674 593.48504539 767.1390686 587.65618896 C768.2200145 585.61901142 769.29986744 583.58125736 770.37963867 581.54345703 C771.04982805 580.28019947 771.72015232 579.01701347 772.390625 577.75390625 C772.86378899 576.86143188 772.86378899 576.86143188 773.34651184 575.95092773 C775.55008107 571.80801462 777.82748943 567.71290716 780.17871094 563.65209961 C781.1483827 562.00901091 781.1483827 562.00901091 781 560 C744.37 560 707.74 560 670 560 C669.67 558.02 669.34 556.04 669 554 C667.88768616 551.4932612 666.74130902 549.10432137 665.46875 546.68359375 C664.7381341 545.25902728 664.00767027 543.83438281 663.27734375 542.40966797 C662.90013184 541.68076355 662.52291992 540.95185913 662.13427734 540.2008667 C660.32036093 536.68127931 658.55236931 533.13891664 656.78125 529.59765625 C656.06917706 528.1776508 655.35693663 526.75772932 654.64453125 525.33789062 C654.29084473 524.63253174 653.9371582 523.92717285 653.57275391 523.20043945 C652.85830221 521.77657657 652.1431342 520.35307288 651.42724609 518.92993164 C647.07510673 510.27621307 642.81520559 501.58930306 638.72509766 492.8082428 C636.07206891 487.11429438 633.29247454 481.49024831 630.4609375 475.8828125 C627.15335186 469.32177053 623.85422507 462.75651186 620.5625 456.1875 C620.23401062 455.53204193 619.90552124 454.87658386 619.56707764 454.20126343 C615.27319211 445.6263135 611.06117978 437.01936402 606.98925781 428.33642578 C603.85958905 421.66854996 600.58004621 415.08342497 597.26367188 408.50683594 C594.52323061 403.07042733 591.79031486 397.6302529 589.0625 392.1875 C588.7575058 391.57903229 588.4525116 390.97056458 588.13827515 390.34365845 C584.00395874 382.0883175 579.96229452 373.79616991 576.04003906 365.43798828 C572.89055741 358.73400807 569.59414891 352.11134229 566.25927734 345.49804688 C563.54121852 340.10619386 560.83050435 334.71066255 558.125 329.3125 C557.82161713 328.70725494 557.51823425 328.10200989 557.20565796 327.47842407 C552.83408958 318.7493868 548.56779461 309.9757494 544.39575195 301.14941406 C541.12626272 294.23842963 537.73717254 287.39554604 534.29492188 280.56933594 C531.37670061 274.77910959 528.46733378 268.98445202 525.5625 263.1875 C525.23382935 262.53167938 524.90515869 261.87585876 524.56652832 261.20016479 C520.27282594 252.62558139 516.06100579 244.018993 511.98925781 235.33642578 C508.85958905 228.66854996 505.58004621 222.08342497 502.26367188 215.50683594 C499.52323061 210.07042733 496.79031486 204.6302529 494.0625 199.1875 C493.7575058 198.57903229 493.4525116 197.97056458 493.13827515 197.34365845 C489.00395874 189.0883175 484.96229452 180.79616991 481.04003906 172.43798828 C477.88916452 165.73104317 474.59121955 159.10548392 471.25488281 152.48925781 C468.55920631 147.14195866 465.87070165 141.79106888 463.1875 136.4375 C462.88739014 135.83880096 462.58728027 135.24010193 462.27807617 134.6232605 C457.13326175 124.3503872 452.12943542 114.0141409 447.20703125 103.6328125 C445.51490401 100.06523827 443.78438692 96.52227516 442 93 C441.01 93 440.02 93 439 93 Z " fill="#FEFEFE" transform="translate(0,0)"/>
<path d="M0 0 C46.2 0 92.4 0 140 0 C138.55063185 4.34810444 137.18168404 7.83580512 135.09375 11.82421875 C134.23330078 13.47562866 134.23330078 13.47562866 133.35546875 15.16040039 C132.74316406 16.32434326 132.13085938 17.48828613 131.5 18.6875 C130.86032886 19.91054385 130.22100945 21.13377172 129.58203125 22.35717773 C128.30863954 24.79322882 127.03258924 27.22785502 125.75390625 29.66113281 C124.2798154 32.46732247 122.81030519 35.27580629 121.34375 38.0859375 C116.11225799 48.0901318 110.75454376 58.02446947 105.38720703 67.95629883 C100.76217894 76.53518175 96.25745689 85.17209225 91.78320312 93.83032227 C86.35229403 104.30959954 80.70115405 114.66578376 75 125 C70.57793461 123.5259782 69.45776835 120.01418683 67.3125 116.125 C66.32590765 114.37795142 65.33752101 112.63191529 64.34765625 110.88671875 C63.81156738 109.93845215 63.27547852 108.99018555 62.72314453 108.01318359 C59.63519957 102.61343626 56.43517878 97.28025638 53.25 91.9375 C47.13001901 81.65205436 41.11929641 71.30875304 35.15551758 60.93188477 C31.96325296 55.38353605 28.75179835 49.85137545 25.4375 44.375 C19.75561802 34.98426147 14.25821034 25.48513913 8.74511719 15.99462891 C7.50629275 13.86880063 6.2615355 11.74642476 5.01269531 9.62646484 C4.05121582 7.99185303 4.05121582 7.99185303 3.0703125 6.32421875 C2.18883545 4.83088013 2.18883545 4.83088013 1.28955078 3.30737305 C0 1 0 1 0 0 Z " fill="#FEFEFE" transform="translate(530,560)"/>
</svg>
